HIERARCHY
ROOT Hips
{
    OFFSET 0.000000 0.000000 0.000000
    CHANNELS 6 Xposition Yposition Zposition Zrotation Xrotation Yrotation
    JOINT Spine
    {
        OFFSET -0.000000 8.505030 0.000000
        CHANNELS 3 Zrotation Xrotation Yrotation
        JOINT Spine1
        {
            OFFSET -0.000000 25.070629 0.000000
            CHANNELS 3 Zrotation Xrotation Yrotation
            JOINT Neck
            {
                OFFSET -0.000000 24.967667 2.269788
                CHANNELS 3 Zrotation Xrotation Yrotation
                JOINT Head
                {
                    OFFSET -0.000000 14.520781 -2.074397
                    CHANNELS 3 Zrotation Xrotation Yrotation
                    End Site
                    {
                        OFFSET -0.000000 25.929966 0.000000
                    }
                }
            }
            JOINT LeftShoulder
            {
                OFFSET 4.117346 22.983784 -0.389865
                CHANNELS 3 Zrotation Xrotation Yrotation
                JOINT LeftArm
                {
                    OFFSET 11.957758 0.000000 0.000000
                    CHANNELS 3 Zrotation Xrotation Yrotation
                    JOINT LeftForeArm
                    {
                        OFFSET 31.907600 0.000000 0.000000
                        CHANNELS 3 Zrotation Xrotation Yrotation
                        JOINT LeftHand
                        {
                            OFFSET 28.601147 0.000000 0.000000
                            CHANNELS 3 Zrotation Xrotation Yrotation
                            End Site
                            {
                                OFFSET 15.557981 0.000000 0.000000
                            }
                        }
                    }
                }
            }
            JOINT RightShoulder
            {
                OFFSET -4.061940 22.983784 -0.389865
                CHANNELS 3 Zrotation Xrotation Yrotation
                JOINT RightArm
                {
                    OFFSET -11.957758 0.000000 0.000000
                    CHANNELS 3 Zrotation Xrotation Yrotation
                    JOINT RightForeArm
                    {
                        OFFSET -31.907600 0.000000 0.000000
                        CHANNELS 3 Zrotation Xrotation Yrotation
                        JOINT RightHand
                        {
                            OFFSET -28.601147 0.000000 0.000000
                            CHANNELS 3 Zrotation Xrotation Yrotation
                            End Site
                            {
                                OFFSET -15.557981 0.000000 0.000000
                            }
                        }
                    }
                }
            }
        }
    }
    JOINT LeftUpLeg
    {
        OFFSET 10.371986 0.000000 0.000000
        CHANNELS 3 Zrotation Xrotation Yrotation
        JOINT LeftLeg
        {
            OFFSET -0.000000 -42.486427 0.000000
            CHANNELS 3 Zrotation Xrotation Yrotation
            JOINT LeftFoot
            {
                OFFSET -0.000000 -48.322342 0.000000
                CHANNELS 3 Zrotation Xrotation Yrotation
                JOINT LeftToeBase
                {
                    OFFSET -0.000000 -6.741791 15.557981
                    CHANNELS 3 Zrotation Xrotation Yrotation
                    End Site
                    {
                        OFFSET -0.000000 0.000000 4.148795
                    }
                }
            }
        }
    }
    JOINT RightUpLeg
    {
        OFFSET -10.371986 0.000000 0.000000
        CHANNELS 3 Zrotation Xrotation Yrotation
        JOINT RightLeg
        {
            OFFSET -0.000000 -42.486427 0.000000
            CHANNELS 3 Zrotation Xrotation Yrotation
            JOINT RightFoot
            {
                OFFSET -0.000000 -48.322342 0.000000
                CHANNELS 3 Zrotation Xrotation Yrotation
                JOINT RightToeBase
                {
                    OFFSET -0.000000 -6.741791 15.557981
                    CHANNELS 3 Zrotation Xrotation Yrotation
                    End Site
                    {
                        OFFSET -0.000000 0.000000 4.148795
                    }
                }
            }
        }
    }
}
MOTION
Frames:    8
Frame Time:    0.008333
20.768908    99.048508    47.058380    1.081711    -1.524302    91.748146    0.570833    -6.312328    0.811462    0.691366    -4.746841    0.808673    1.481677    33.387966    -5.295098    0.142122    5.853113    -5.246379    16.084055    -0.174820    -15.000042    -3.652868    2.498168    -8.122728    -1.151092    -3.187609    20.626926    4.516614    -3.059059    -2.046765    -15.652599    2.316447    -8.201693    7.284739    1.816396    22.166132    2.893858    1.137003    -17.534655    -1.121798    1.621683    -3.919824    5.222162    5.254563    4.780805    -1.438768    5.420721    4.642171    -6.159810    -6.142690    7.243521    0.000000    0.000000    0.000000    -2.443105    4.393023    4.100283    1.508623    4.053160    -1.841089    4.337540    -4.345860    -15.151778    0.000000    0.000000    0.000000    
20.776405    99.046310    47.056496    1.092399    -1.520956    91.789024    0.561295    -6.303001    0.800153    0.694638    -4.743484    0.798022    1.420318    33.331364    -5.282521    0.172604    5.980608    -5.242012    16.072496    -0.181903    -14.994411    -3.696588    2.541368    -8.149591    -1.099825    -3.267209    20.636683    4.403471    -3.147181    -2.081526    -15.660192    2.303347    -8.200893    7.334762    1.734078    22.154919    2.900857    1.152057    -17.565014    -0.959315    1.633719    -4.001593    5.221655    5.253303    4.761098    -1.435341    5.436713    4.653813    -6.135347    -6.153448    7.215190    0.000000    0.000000    0.000000    -2.448503    4.408257    4.130880    1.521671    4.061504    -1.858569    4.352591    -4.367705    -15.202971    0.000000    0.000000    0.000000    
20.781370    99.044319    47.054363    1.093839    -1.517144    91.829224    0.548744    -6.303665    0.791217    0.697943    -4.737463    0.789934    1.389562    33.295658    -5.299407    0.175535    6.062910    -5.265236    16.071869    -0.187051    -15.011287    -3.745676    2.516264    -8.155355    -1.103696    -3.354083    20.645870    4.641078    -3.237747    -2.084929    -15.646419    2.298908    -8.212670    7.347312    1.727258    22.152348    2.894946    1.113128    -17.572803    -0.938572    1.593384    -4.004726    5.218629    5.237480    4.755376    -1.427894    5.459425    4.622283    -6.152597    -6.158186    7.212993    0.000000    0.000000    0.000000    -2.452276    4.409199    4.104589    1.529615    4.083693    -1.852479    4.352811    -4.391346    -15.227956    0.000000    0.000000    0.000000    
20.787960    99.041702    47.051983    1.098961    -1.511960    91.867722    0.532751    -6.296627    0.787534    0.701646    -4.741211    0.787354    1.320077    33.346592    -5.323154    0.268481    6.019868    -5.292561    16.075415    -0.188358    -15.033004    -3.797617    2.465281    -8.160202    -1.110472    -3.333383    20.642265    4.454073    -3.216063    -2.179252    -15.650482    2.279540    -8.224623    7.385126    1.699993    22.129774    2.903685    1.112708    -17.580452    -0.857717    1.591994    -4.044854    5.213431    5.228788    4.733903    -1.424814    5.477350    4.628365    -6.117604    -6.165287    7.195983    0.000000    0.000000    0.000000    -2.457370    4.422823    4.128392    1.534487    4.081999    -1.919426    4.365220    -4.399728    -15.217714    0.000000    0.000000    0.000000    
20.794422    99.039383    47.053551    1.103657    -1.518226    91.906914    0.529299    -6.294664    0.778639    0.696507    -4.738461    0.778353    1.298887    33.282379    -5.334023    0.278320    6.160707    -5.307859    16.073332    -0.203022    -15.046654    -3.832658    2.443049    -8.172279    -1.131126    -3.306883    20.669992    4.214222    -3.179442    -2.137449    -15.632548    2.276073    -8.209135    7.417720    1.599947    22.092569    2.926911    1.126519    -17.587452    -0.802026    1.607630    -4.050484    5.225804    5.217411    4.738917    -1.424504    5.503645    4.604610    -6.118598    -6.181342    7.179047    0.000000    0.000000    0.000000    -2.444237    4.434416    4.106887    1.533684    4.090677    -1.920319    4.371935    -4.416720    -15.236701    0.000000    0.000000    0.000000    
20.806976    99.042358    47.047001    1.145669    -1.511152    91.941628    0.521060    -6.247687    0.779602    0.689259    -4.751927    0.779767    1.328876    33.298820    -5.365279    0.242363    6.171030    -5.338312    16.076775    -0.203056    -15.079016    -3.879803    2.365490    -8.174932    -1.177076    -3.300256    20.639324    4.416761    -3.166131    -2.074278    -15.624349    2.276658    -8.225342    7.441100    1.555219    22.076670    2.953818    1.132105    -17.598757    -0.730009    1.615125    -4.052565    5.214453    5.247784    4.756795    -1.408665    5.524022    4.570584    -6.114234    -6.178568    7.159313    0.000000    0.000000    0.000000    -2.452579    4.491641    4.103168    1.539868    4.085233    -1.964690    4.363562    -4.414098    -15.226173    0.000000    0.000000    0.000000    
20.815140    99.040695    47.046844    1.150634    -1.514635    91.969902    0.522397    -6.249858    0.777467    0.679005    -4.735836    0.777103    1.349914    33.262524    -5.346215    0.196858    6.227685    -5.319570    16.066608    -0.230106    -15.081036    -3.912265    2.352549    -8.188814    -1.205787    -3.203292    20.648365    4.195340    -3.060415    -2.090377    -15.615503    2.275967    -8.238046    7.463947    1.523704    22.066063    2.977276    1.096813    -17.601599    -0.837500    1.586651    -3.957566    5.219446    5.233387    4.775514    -1.398534    5.559060    4.533093    -6.122886    -6.188647    7.148660    0.000000    0.000000    0.000000    -2.447202    4.503276    4.066383    1.538331    4.091429    -1.918326    4.384389    -4.430449    -15.265797    0.000000    0.000000    0.000000    
20.819525    99.039124    47.044518    1.149501    -1.516228    92.000969    0.525317    -6.249377    0.777101    0.663118    -4.725208    0.775787    1.358754    33.225754    -5.370712    0.184175    6.275199    -5.345336    16.070181    -0.251316    -15.088255    -3.958631    2.325912    -8.199933    -1.223327    -3.170678    20.613445    4.195199    -3.019979    -1.952981    -15.620413    2.267718    -8.263884    7.506623    1.466020    22.054955    3.011697    1.007188    -17.612371    -1.032411    1.508661    -3.870889    5.222954    5.214317    4.761007    -1.396836    5.583985    4.532118    -6.140500    -6.200178    7.136995    0.000000    0.000000    0.000000    -2.444273    4.510727    4.066067    1.539100    4.091362    -1.943666    4.388032    -4.440517    -15.265208    0.000000    0.000000    0.000000    
